<?xml version="1.0" encoding="UTF-8" standalone="no"?><!DOCTYPE svg PUBLIC "-//W3C//DTD SVG 1.1//EN" "http://www.w3.org/Graphics/SVG/1.1/DTD/svg11.dtd"><svg width="753px" height="157px" version="1.1" xmlns="http://www.w3.org/2000/svg" xmlns:xlink="http://www.w3.org/1999/xlink" xml:space="preserve" xmlns:serif="http://www.serif.com/" style="fill-rule:evenodd;clip-rule:evenodd;stroke-linejoin:round;stroke-miterlimit:1.41421;"><g><path d="M686.537,123.892l6.018,-23.448l16.788,0c1.014,0 1.887,-0.224 2.547,-0.648c0.665,-0.447 1.102,-1.029 1.29,-1.766c0.127,-0.492 0.12,-0.895 -0.008,-1.251c-0.108,-0.358 -0.418,-0.694 -0.876,-1.051l-2.588,-1.766c-5.534,-3.935 -8.911,-7.265 -10.149,-9.991c-1.239,-2.727 -1.343,-6.104 -0.315,-10.104c1.468,-5.722 4.641,-10.193 9.501,-13.412c4.874,-3.196 10.949,-4.805 18.22,-4.805l25.382,0l-5.563,21.682l-14.872,0c-0.817,0 -1.54,0.245 -2.19,0.715c-0.632,0.491 -1.051,1.096 -1.241,1.833c-0.103,0.403 -0.063,0.759 0.11,1.117c0.151,0.358 0.45,0.648 0.844,0.916l2.248,1.632c0.044,0 0.12,0.045 0.23,0.135c9.288,6.728 13.023,13.634 11.194,20.765c-0.826,3.218 -2.321,6.214 -4.503,8.964c-2.16,2.749 -4.789,5.007 -7.857,6.75c-2.41,1.319 -4.987,2.257 -7.779,2.839c-2.778,0.604 -6.928,0.894 -12.48,0.894l-1.632,0l-22.319,0Zm-229.828,-6.146c-1.494,0.416 -5.82,1.497 -7.264,1.728c-1.423,0.228 -2.754,0.338 -3.993,0.338c-8.441,0 -14.528,-2.936 -18.232,-8.829c-3.711,-5.87 -4.306,-13.62 -1.818,-23.231c1.165,-4.497 3.082,-8.742 5.744,-12.777c2.655,-4.013 5.889,-7.581 9.669,-10.664c3.946,-3.147 8.117,-5.555 12.524,-7.245c4.428,-1.689 8.784,-2.533 13.089,-2.533c7.265,0 13.106,2.025 17.532,6.103c4.41,4.054 6.769,9.545 7.076,16.473c0.072,2.069 -0.052,4.33 -0.412,6.779c-0.342,2.45 -1.062,5.808 -2.163,10.053l-0.595,2.302l-4.392,16.959c-3.138,12.123 -8.316,21.013 -15.516,26.673c-7.193,5.64 -16.956,8.469 -29.264,8.469c-3.927,0 -7.898,-0.316 -11.897,-0.929c-4.022,-0.612 -8.065,-1.542 -12.172,-2.789l5.73,-22.132c3.806,1.437 7.313,2.493 10.525,3.147c3.213,0.655 6.275,0.993 9.194,0.993c5.418,0 9.431,-0.913 12.04,-2.703c1.918,-1.317 3.435,-3.329 4.595,-6.185Zm3.929,-35.903c3.923,0 6.068,3.517 4.774,7.829c-1.297,4.312 -5.552,7.829 -9.475,7.829c-3.922,0 -6.066,-3.517 -4.771,-7.829c1.295,-4.312 5.55,-7.829 9.472,-7.829Zm-191.052,-26.359c0.459,-0.045 4.038,-0.373 4.48,-0.394c9.409,-0.432 18.866,1.87 24.448,9.568c4.635,6.393 5.612,14.886 2.946,25.437c-1.182,4.671 -3.164,9.164 -5.913,13.434c-2.75,4.269 -6.121,8.069 -10.088,11.399c-4.06,3.264 -8.342,5.79 -12.842,7.533c-4.521,1.744 -8.994,2.616 -13.443,2.616c-7.508,0 -13.52,-2.146 -18.084,-6.416c-4.557,-4.291 -7,-10.08 -7.294,-17.412c-0.085,-2.325 0.054,-4.851 0.46,-7.577c0.387,-2.727 1.291,-6.908 2.716,-12.541l12.893,-51.007l26.128,0l-6.407,25.36Zm1.048,26.712c3.923,0 6.068,3.517 4.774,7.829c-1.297,4.312 -5.552,7.829 -9.475,7.829c-3.922,0 -6.066,-3.517 -4.771,-7.829c1.295,-4.312 5.55,-7.829 9.472,-7.829Zm220.519,41.696l22.279,-93.768l24.619,0l-7.174,30.197c2.62,-2.012 5.204,-3.531 7.706,-4.537c2.504,-1.006 4.987,-1.498 7.413,-1.498c6.283,0 10.585,2.504 12.907,7.488c2.319,5.007 2.396,12.07 0.228,21.19l-9.723,40.928l-24.619,0l9.271,-39.028c0.372,-1.564 0.252,-2.861 -0.365,-3.867c-0.617,-1.006 -1.582,-1.498 -2.887,-1.498c-1.327,0 -2.524,0.492 -3.599,1.498c-1.076,1.006 -1.792,2.303 -2.164,3.867l-9.273,39.028l-24.619,0Zm-119.642,0l15.39,-68.242l23.931,0l-2.229,9.88c2.548,-3.398 5.416,-5.902 8.582,-7.489c3.165,-1.586 6.949,-2.391 11.284,-2.391l1.645,0l-5.434,24.096c-6.465,0 -11.533,1.698 -15.18,5.074c-3.648,3.375 -6.333,8.852 -8.037,16.406l-5.112,22.666l-24.84,0Zm-36.397,-22.834c7.096,4.034 21.623,2.503 26.442,-2.297l3.399,17.921c-5.381,7.569 -31.101,10.182 -41.175,7.21c-2.67,-0.782 -5.005,-1.945 -7.051,-3.465c-4.136,-3.196 -6.971,-7.487 -8.469,-12.942c-1.525,-5.432 -1.525,-11.355 0,-17.771c1.131,-4.76 3.004,-9.297 5.615,-13.59c2.61,-4.291 5.849,-8.135 9.664,-11.489c3.746,-3.398 7.788,-5.991 12.118,-7.734c4.311,-1.743 8.761,-2.615 13.35,-2.615c7.282,0 13.165,2.28 17.636,6.818c4.49,4.537 7.162,10.974 8.056,19.313l-39.585,20.641Zm-3.399,-13.672l17.341,-9.183c-0.597,-1.005 -1.361,-1.743 -2.284,-2.235c-0.929,-0.47 -1.993,-0.715 -3.236,-0.715c-2.549,0 -4.973,1.249 -7.276,3.754c-2.082,2.266 -3.601,5.078 -4.545,8.379Zm366.778,-29.905c-3.149,10.13 -6.168,20.676 -9.097,31.657c-2.912,10.981 -5.779,22.594 -8.604,34.862l-23.181,0l1.6,-6.951c-3.078,3.181 -6.057,5.446 -8.937,6.797c-2.873,1.33 -6.219,2.004 -10.016,2.004c-6.015,0 -9.987,-1.808 -11.935,-5.402c-1.948,-3.595 -2.02,-9.304 -0.218,-17.126c0.542,-2.352 2.169,-8.584 4.9,-18.716c2.719,-10.131 5.057,-19.174 7.015,-27.125l23.23,0c-2.044,7.145 -3.742,13.267 -5.087,18.344c-1.349,5.098 -2.495,9.719 -3.452,13.88c-0.833,3.616 -1.076,6.253 -0.717,7.886c0.357,1.635 1.314,2.463 2.91,2.463c2.778,0 5.264,-2.419 7.494,-7.256c2.212,-4.815 5.579,-16.603 10.068,-35.317l24.027,0Zm-101.98,50.315c0.981,-3.905 1.879,-7.716 2.712,-11.315c-3.874,0.357 -7.04,1.248 -9.492,2.652c-2.455,1.425 -3.894,3.164 -4.304,5.258c-0.286,1.472 -0.113,2.629 0.52,3.455c0.634,0.825 1.669,1.248 3.108,1.248c0.416,0 0.879,-0.026 1.399,-0.09c0.54,-0.064 5.215,-1.076 6.057,-1.208Zm-3.291,12.713c-1.89,0.407 -11.169,4.465 -12.676,4.63c-1.506,0.166 -2.91,0.267 -4.217,0.267c-6.134,0 -10.558,-1.783 -13.27,-5.349c-2.694,-3.565 -3.427,-8.534 -2.187,-14.886c1.13,-5.794 3.53,-10.517 7.183,-14.195c3.651,-3.677 8.745,-6.485 15.253,-8.402c2.586,-0.734 5.768,-1.514 9.546,-2.339c5.568,-1.271 8.56,-2.92 8.96,-4.969c0.213,-1.091 0.019,-1.94 -0.556,-2.586c-0.578,-0.624 -1.501,-0.936 -2.75,-0.936c-2.255,0 -5.53,0.58 -9.846,1.738c-4.311,1.138 -8.995,2.72 -14.043,4.726l6.314,-20.124c4.672,-1.427 9.275,-2.518 13.775,-3.254c4.518,-0.736 8.928,-1.115 13.264,-1.115c8.351,0 14.249,1.404 17.653,4.236c3.405,2.83 4.509,7.265 3.339,13.259c-0.157,0.802 -0.371,1.804 -0.652,3.052c-0.278,1.227 -0.601,2.585 -0.967,4.078l-8.061,34.208c-0.053,0.266 -0.166,0.847 -0.344,1.76c-0.75,3.454 -1.401,6.597 -1.963,9.471l-24.633,0c0.295,-1.1 0.585,-2.202 0.878,-3.27Z" style="fill:#fff;"/><path d="M29.822,23.793c4.118,-14.423 6.792,-23.793 30.445,-23.793l138.202,0c33.662,0 29.459,26.231 25.262,40.933l-26.58,93.471c-3.09,13.311 -13.587,22.392 -28.363,22.392l-143.945,0c-15.899,0 -28.532,-15.597 -23.859,-31.968l28.838,-101.035Z" style="fill:#fff;"/><path d="M63.567,16.418l45.105,0c15.753,0 13.939,8.191 11.934,15.211l-26.601,93.199c-2.851,9.985 -9.044,16.371 -18.669,16.371l-43.2,0c-9.139,0 -16.438,-8.067 -14.067,-16.371l27.056,-94.791c1.837,-6.436 5.195,-13.619 18.442,-13.619Z" style="fill:#00539c;"/><path d="M153.928,16.418l45.106,0c15.753,0 13.938,8.191 11.934,15.211l-26.602,93.199c-2.85,9.985 -9.044,16.371 -18.668,16.371l-43.2,0c-9.139,0 -16.439,-8.067 -14.067,-16.371l27.055,-94.791c1.837,-6.436 5.196,-13.619 18.442,-13.619Z" style="fill:#ed1c24;"/></g></svg>