<?xml version="1.0" encoding="UTF-8" standalone="no"?><!DOCTYPE svg PUBLIC "-//W3C//DTD SVG 1.1//EN" "http://www.w3.org/Graphics/SVG/1.1/DTD/svg11.dtd"><svg width="511px" height="123px" version="1.1" xmlns="http://www.w3.org/2000/svg" xmlns:xlink="http://www.w3.org/1999/xlink" xml:space="preserve" xmlns:serif="http://www.serif.com/" style="fill-rule:evenodd;clip-rule:evenodd;stroke-linejoin:round;stroke-miterlimit:1.41421;"><g><path d="M109.424,68.699c-14.602,6.332 -35.148,8.59 -57.618,16.097c10.057,-9.307 28.995,-12.118 28.909,-17.31c-0.033,-1.982 -2.19,-3.879 -6.501,-5.255c-21.325,-6.804 -31.905,-10.196 -33.081,-13.073c-1.225,-2.997 18.279,-13.273 45.332,-19.67c-8.79,4.86 -10.812,8.349 -9.18,10.772c5.517,8.19 54.817,18.605 32.139,28.439Zm-68.847,29.96l-1.258,-0.476c-19.792,-8.186 -31.785,-18.946 -31.785,-30.735c0,-19.456 32.662,-36.106 78.915,-42.932l0.664,-0.061c-2.23,0.492 -53.811,12.269 -52.858,24.703c0.62,8.078 21.647,12.936 38.334,18.329c-11.476,5.394 -19.42,7.68 -27.737,15.784c-3.451,3.363 -6.475,9.18 -4.275,15.388Zm20.866,-98.546c-33.934,0 -61.443,27.51 -61.443,61.444c0,33.935 27.509,61.443 61.443,61.443c33.935,0 61.444,-27.508 61.444,-61.443c0,-33.934 -27.509,-61.444 -61.444,-61.444Z" style="fill:#f18802;fill-rule:nonzero;"/><path d="M84.139,52.465c-2.067,-0.989 -4.85,-2.329 -7.347,-3.764c-2.438,-1.4 -4.886,-3.041 -5.986,-4.67c-0.52,-0.77 -1.059,-1.64 -1.343,-2.63c-4.021,0.922 -8.713,2.848 -12.463,4.498c-1.226,0.539 -2.831,1.468 -3.565,1.992c4.527,1.623 11.621,3.933 22.548,7.452c6.219,2.002 12.396,5.113 12.644,12.277c5.959,-1.5 13.114,-3.521 16.81,-5.254c-1.206,-0.803 -2.875,-1.73 -5.056,-2.733c-5.232,-2.406 -11.003,-4.662 -16.242,-7.168Z" style="fill:#f18802;fill-rule:nonzero;"/><path d="M45.669,66.228c-3.22,-1.257 -8.313,-3.387 -11.82,-6.023c-3.993,-3 -6.214,-5.711 -6.757,-10.166c-8.406,5.679 -12.47,11.997 -12.049,18.012c0.292,4.174 3.776,11.503 18.527,19.476c1.311,-4.05 3.704,-7.35 6.023,-9.61c4.318,-4.207 8.563,-7.036 12.99,-9.384c-2.649,-0.823 -4.599,-1.402 -6.914,-2.305Z" style="fill:#f18802;fill-rule:nonzero;"/><path d="M502.864,33.438l-62.264,0.004c-4.638,0.004 -8.893,3.14 -9.506,7.006l-0.016,0.138l-0.715,4.518l-32.309,0l0.296,-1.864c0.249,-1.544 1.701,-2.794 3.245,-2.794l26.786,0l1.11,-7.008l-29.589,0c-4.602,0 -8.827,3.08 -9.5,6.902c-0.064,0.204 -0.113,0.41 -0.147,0.612l-3.421,21.914l8.407,0l1.856,-11.716l32.307,0c-0.438,2.775 -0.792,5.019 -0.795,5.056c-0.372,3.695 2.807,6.639 7.342,6.664l28.191,0l1.109,-7.007l-25.387,0c-1.548,0 -2.604,-1.255 -2.359,-2.803l0.3,-1.895l25.309,0l0.954,-6.019l-25.311,0l0.36,-2.206c0.38,-1.398 1.738,-2.483 3.233,-2.482l57.29,-0.012c1.122,0 1.885,0.907 1.708,2.028l-0.078,0.492c-0.174,1.094 -1.181,1.986 -2.339,2.031l-26.088,0l-2.831,17.869l8.408,0l1.854,-11.704l17.201,0c4.025,2.13 3.697,11.7 3.697,11.7l8.409,0c0.74,-4.665 -0.923,-11.094 -3.785,-13.198c1.963,-1.15 3.365,-2.899 3.7,-5.015l0.666,-4.203c0.613,-3.871 -2.655,-7.008 -7.298,-7.008Zm-126.222,0l-41.887,0l-3.101,19.583c-0.247,1.548 -1.701,2.802 -3.247,2.802l-14.222,0c-1.549,0 -2.604,-1.254 -2.359,-2.802l3.101,-19.579l-44.453,0c-4.606,0 -8.835,3.085 -9.503,6.911l-0.569,3.596c-0.613,3.869 2.654,7.007 7.298,7.007l18.669,0c1.207,0 2.034,0.978 1.843,2.185l-0.084,0.532c-0.193,1.208 -1.329,2.19 -2.537,2.19l-41.954,0l-1.123,7.007l44.07,0c4.643,0 8.904,-3.137 9.519,-7.015l0.619,-3.912c0.613,-3.868 -2.664,-6.946 -7.307,-6.946l-18.681,0c-1.12,0 -1.883,-0.911 -1.706,-2.031l0.077,-0.492c0.177,-1.116 1.22,-2.02 2.347,-2.02c0.005,0 0.01,0 0.015,0l33.942,-0.006l-2.435,15.375c-0.613,3.871 2.654,7.008 7.298,7.008l19.828,0c4.643,0 8.905,-3.137 9.518,-7.008l2.435,-15.377l31.368,0c1.12,0 1.884,0.907 1.706,2.028l-0.077,0.492c-0.173,1.094 -1.181,1.986 -2.339,2.031l-26.089,0l-2.83,17.869l8.408,0l1.854,-11.704l17.201,0c4.024,2.13 3.697,11.7 3.697,11.7l8.408,0c0.739,-4.665 -0.922,-11.094 -3.783,-13.198c1.962,-1.15 3.363,-2.899 3.698,-5.015l0.667,-4.203c0.612,-3.871 -2.655,-7.008 -7.3,-7.008Zm-222.333,0c-4.601,0 -8.912,3.181 -9.518,7.008l-3.551,22.42l8.408,0l1.856,-11.716l24.786,0l0.958,-6.046l-24.739,0l0.295,-1.864c0.249,-1.544 1.701,-2.794 3.246,-2.794c0,0 -0.001,0.002 30.222,0.002l-2.441,15.415c-0.614,3.87 2.654,7.007 7.297,7.007l42.979,0l1.776,-11.214l7.964,0c4.644,0 8.901,-3.109 9.514,-6.979l1.779,-11.235l-8.408,0l-1.336,8.433c-0.245,1.547 -1.698,2.802 -3.246,2.802l-18.63,0c-1.548,0 -2.604,-1.255 -2.358,-2.802l1.335,-8.433l-8.408,0l-1.78,11.235c-0.613,3.87 2.659,6.979 7.302,6.979l7.863,0l-0.665,4.207l-31.768,0c-1.548,0 -2.603,-1.255 -2.358,-2.803l3.107,-19.618l-41.481,-0.004Z" style="fill:#f18802;fill-rule:nonzero;"/><path d="M253.109,74.228l-3.378,0l-5.695,5.84l-1.279,0l0.924,-5.84l-2.747,0l-2.268,14.313l2.749,0l0.97,-6.125l1.278,0l4.298,6.125l3.473,0l-5.233,-7.328l6.908,-6.985Z" style="fill:#f18802;fill-rule:nonzero;"/><path d="M268.594,74.228l-2.747,0l-2.268,14.313l2.749,0l2.266,-14.313Z" style="fill:#f18802;fill-rule:nonzero;"/><path d="M292.298,74.228l-11.144,0l-0.372,2.348l4.198,0l-1.896,11.965l2.748,0l1.896,-11.965l4.198,0l0.372,-2.348Z" style="fill:#f18802;fill-rule:nonzero;"/><path d="M314.458,74.228l-9.808,0l-2.266,14.313l9.866,0l0.371,-2.347l-7.118,0l0.601,-3.798l6.698,0l0.357,-2.251l-6.698,0l0.566,-3.569l7.06,0l0.371,-2.348Z" style="fill:#f18802;fill-rule:nonzero;"/><path d="M334.999,74.228l-7.118,0l-2.268,14.313l7.367,0c3.015,0 4.442,-0.821 4.944,-3.989c0.287,-1.813 0.114,-3.129 -1.853,-3.358l0.011,-0.076c1.803,-0.42 2.284,-1.527 2.545,-3.168c0.498,-3.149 -0.824,-3.722 -3.628,-3.722Zm-5.319,5.993l0.577,-3.645l3.873,0c1.355,0 1.949,0.114 1.706,1.641c-0.242,1.527 -0.661,2.004 -2.207,2.004l-3.949,0Zm-0.947,5.973l0.617,-3.893l4.218,0c1.621,0 1.893,0.458 1.644,2.022c-0.279,1.757 -1.078,1.871 -2.719,1.871l-3.76,0Z" style="fill:#f18802;fill-rule:nonzero;"/><path d="M358.399,74.114c-4.542,0 -6.173,0.782 -6.878,5.228l-0.61,3.856c-0.744,4.694 0.757,5.458 5.184,5.458c4.332,0 6.246,-0.878 6.972,-5.458l0.61,-3.856c0.729,-4.598 -1.156,-5.228 -5.278,-5.228Zm-1.932,12.195c-2.747,0 -3.259,-0.268 -2.808,-3.111l0.61,-3.856c0.417,-2.269 0.8,-2.881 3.757,-2.881c2.443,0 3.387,0.191 2.904,2.881l-0.612,3.856c-0.438,2.767 -1.351,3.111 -3.851,3.111Z" style="fill:#f18802;fill-rule:nonzero;"/><path d="M385.24,74.228l-4.046,0l-7.018,14.313l2.843,0l1.327,-2.71l6.181,0l0.507,2.71l2.787,0l-2.581,-14.313Zm-5.936,9.523l3.619,-7.423l0.037,0l1.286,7.423l-4.942,0Z" style="fill:#f18802;fill-rule:nonzero;"/><path d="M409.774,74.228l-7.31,0l-2.266,14.313l2.747,0l0.751,-4.733l4.217,0c1.314,0.019 1.677,0.859 1.486,2.062l-0.423,2.671l2.748,0l0.424,-2.671c0.32,-2.023 0.009,-3.074 -1.911,-3.245l0.012,-0.076c2.482,-0.362 2.84,-1.908 3.176,-4.027c0.514,-3.244 -0.534,-4.217 -3.651,-4.294Zm-5.708,7.233l0.775,-4.885l3.817,0c1.965,0 2.27,0.362 1.95,2.385c-0.333,2.099 -0.892,2.5 -2.915,2.5l-3.627,0Z" style="fill:#f18802;fill-rule:nonzero;"/><path d="M434.362,74.228l-6.832,0l-2.266,14.313l7.29,0c4.331,0 5.587,-2.634 6.06,-5.61l0.534,-3.378c0.616,-3.893 -0.836,-5.325 -4.786,-5.325Zm-5.979,11.966l1.524,-9.618l4.084,0c2.098,0 2.788,0.591 2.409,2.977l-0.534,3.378c-0.255,1.603 -1.091,3.263 -2.941,3.263l-4.542,0Z" style="fill:#f18802;fill-rule:nonzero;"/><path d="M456.014,74.228l-2.748,0l-2.267,14.313l2.747,0l2.268,-14.313Z" style="fill:#f18802;fill-rule:nonzero;"/><path d="M483.057,74.228l-2.747,0l-1.667,11.966l-0.076,0l-4.232,-11.966l-4.541,0l-2.267,14.313l2.748,0l1.666,-11.965l0.095,0l4.193,11.965l4.561,0l2.267,-14.313Z" style="fill:#f18802;fill-rule:nonzero;"/><path d="M503.263,74.113c-0.235,0 -0.474,0.001 -0.717,0.001c-4.428,0 -6.432,0.84 -7.186,5.611l-0.52,3.281c-0.769,4.848 0.822,5.65 5.402,5.65c5.096,0 6.302,-0.878 6.974,-5.115l0.411,-2.595l-6.354,0l-0.33,2.079l3.607,0l-0.082,0.516c-0.429,2.711 -1.24,2.768 -3.853,2.768c-3.055,0 -3.465,-0.306 -3.029,-3.303l0.522,-3.281c0.476,-2.768 0.86,-3.264 4.066,-3.264c0.042,0 0.085,0 0.126,0c2.295,0 3.287,0.019 2.96,2.08l2.729,0c0.766,-4.279 -1.583,-4.428 -4.726,-4.428Z" style="fill:#f18802;fill-rule:nonzero;"/></g></svg>